<?xml version="1.0" encoding="UTF-8"?>
<svg id="Layer_1" data-name="Layer 1" xmlns="http://www.w3.org/2000/svg" viewBox="0 0 266.1 464.5">
  <defs>
    <style>
      .cls-1 {
        fill: #010101;
        stroke-width: 0px;
      }
    </style>
  </defs>
  <path class="cls-1" d="M159.45,216.44c-.13-9.48-1.25-19.09-2.42-28.52-1.47-11.82-2.76-24.02-5.65-35.5-1.59-6.28-3.51-9.4-5.79-9.28-.88.04-1.32.06-2.2.09,1.75,29.96,4.12,59.87,6.17,89.81,1.27-.06,1.91-.1,3.18-.17,2.71-.16,4.55-1.47,5.44-3.91.9-2.44,1.36-6.65,1.28-12.52Z"/>
  <path class="cls-1" d="M115.49,141.31c-1.76-.11-3.58,3.51-5.41,10.72-2.98,11.75-4.41,24.16-5.77,36.2-1.34,11.86-2.89,24.25-1.84,36.13.65,7.28,2.53,11.07,5.25,11.14,2.8.08,5.38-3.5,7.18-10.54,3.13-12.26,3.48-25.62,4.2-38.35.64-11.31,1.03-22.96.05-34.21-.63-7.22-1.83-10.97-3.67-11.09Z"/>
  <path class="cls-1" d="M169.78,316.37c-1.2-2.83-3.27-4.25-6.3-4.25-2.92,0-4.38.03-7.28.19.11,10.77.46,21.54.6,32.31,2.94-.16,4.43-.14,7.39.05.8.05,2.38-.64,4.57-1.84,1.08-.59,2-2.21,2.6-4.91.6-2.7.79-5.84.61-9.39-.27-5.27-1.01-9.33-2.2-12.15Z"/>
  <path class="cls-1" d="M81.08,162.76c1.13-2.67,2.27-6.65,3.44-11.95,1.08-4.91,1.69-8.82,1.89-11.75.21-2.92.27-4.83-1.03-5.02-1.52-.22-2.26-.38-3.73-.72-2.77,10.79-5.61,21.56-8.48,32.33,1.7.28,2.56.41,4.3.6,1.56.17,2.47-.82,3.61-3.49Z"/>
  <path class="cls-1" d="M265.52,428.54c-3.72-27.24-5.9-54.47-9.82-81.67-2.3-15.95-5.6-31.78-7.12-47.79-1.04-10.98-2.24-21.79-5.67-32.19-11.04-33.46-22.15-66.9-33.47-100.26-12.75-37.59-23.01-75.38-27.46-115.25-1.3-11.63-5.85-22.98-11.39-33.37-4.7-8.81-12.97-15.38-22.7-17.35-4.81-.97-9.92-.6-14.89-.49-16.95.37-30.76,8.72-37.72,24.56-3.83,8.71-6.85,17.87-9.45,27.07-6.58,23.26-12.27,46.79-19.15,69.95-9.79,32.94-20.31,65.64-30.56,98.43-5.54,17.73-11.9,35.23-16.52,53.22-3.09,12.05-3.77,24.76-5.55,37.18C8.49,349.17-.47,387.33.06,426.68c0,6.36-.18,12.73.1,19.08.1,2.26.83,4.87,2.14,6.61,4.2,5.6,10.93,9.94,18.08,11,14.45,2.14,28.86,1.03,43.03-1.75,11.46-2.25,22.57-6.4,33.99-8.93,10.18-2.25,20.7-2.37,28.23,6.63,6.09,7.29,12.25,4.9,17.58-1.23,1.75-2.02,3.98-3.84,6.33-5.01,6.56-3.25,13.5-3.6,20.48-1.57,23.07,6.73,46.47,10.69,70.54,10.2,8.18-.17,13.04-3.38,18.69-8.97,3.45-3.41,6.96-7.66,6.84-12.69-.09-3.85-.06-7.73-.58-11.53ZM196.2,196.3c6.32,23.03,12.53,46.09,18.8,69.13-5.89.45-8.84.69-14.74,1.15-5.19-22.96-10.23-45.95-15.41-68.91-11.64-30.96-21.84-61.94-28.27-94.55,3.19-.8,4.67-1.91,7.99-1.84,4.22,19,9.6,37.37,15.96,55.71-2.5-19.26-4.97-38.5-6.87-57.83,2.93-1.18,4.33-1.94,7.29-2.64,4.38,33.38,10.83,66.41,15.24,99.78ZM68.2,327.84c-6.47,1.4-9.73,2.06-16.3,3.23.41-7.71.1-13.33-.87-16.86-.97-3.54-2.63-5.35-4.96-5.42-1.92-.06-3.48,1.22-4.77,3.8-1.29,2.58-2.17,5.75-2.66,9.49-.35,2.73-.24,5.23.27,7.43.53,2.26,2.15,4.49,4.96,6.51,6.94,5.16,11.9,10.02,14.74,14.94,2.84,4.92,4.73,11.01,5.77,18.3,1.15,8.04,1.36,16.7,1.1,24.76-.32,10.2-1.14,20.62-2.95,30.7-1.34,7.47-4.47,15.49-8.2,22.08-2.54,4.5-5.89,6.34-11.73,6.45-11.03.22-23.74-6.2-26.92-17.73-3.99-14.44-5.78-30.41-4.63-45.54,6.01,2.1,9.93,1.99,17.24,1.25-.29,8.27.26,14.65,1.37,19.08,1.81,7.16,4.8,10.85,8.53,10.85,2.78,0,4.87-1.89,6.35-5.54,1.47-3.66,2.24-7.86,2.38-12.57.13-4.48-.38-8.44-1.55-11.93-1.17-3.49-4.15-6.72-8.81-9.99-7.38-5.18-12.81-13.24-14.58-22.38-2.18-11.25-.99-22.48.58-33.59,1.14-8.04,3.25-16.38,5.73-24.17,2.42-7.62,5.52-13.64,9.32-17.97,3.79-4.33,8.4-6.38,13.62-6.2,6.42.23,10.72,4.42,13.4,12.5,4.06,12.26,3.83,25.55,3.58,38.53ZM62.84,267.29c-3.55,1.4-5.89,2.09-6.96,2.05-8.45-.33-16.9-.63-25.36-.85,16.59-57.9,37.04-114.49,52.58-172.75,5.23,2.14,8.1,2.8,11.91,4.91,1.59.88,2.61,5.44,2.65,13.84.05,10.16-.93,20.42-2.82,30.29-1.62,8.46-3.41,17.04-6.5,25.17-1.73,4.6-3.7,8.16-5.83,10.68,1.83,3.23,2.88,8.39,2.94,15.52.08,8.94-1.27,17.81-2.65,26.57-1.22,7.72-3.3,15.78-5.92,23.14-2.41,6.78-4.91,12.2-7.57,16.16-1.65,2.46-3.8,4.22-6.46,5.27ZM129.4,382.69c0,9.46-.08,18.93-.63,28.36-.51,8.74-1.29,16.18-3.18,21.13-1.9,4.95-4.12,7.37-6.06,8.11-2.69,1.04-6.39.84-11.18.83-2.77,0-5.97.04-9.56,0-3.6-.05-7.34-.64-10.16-3.04-2.83-2.4-4.88-6.7-7.03-12.44-2.15-5.74-4.1-11.96-4.87-18.34-1.11-9.14-1.87-18.49-1.42-27.86,1.58-32.93,3.75-65.89,5.82-98.78,6.22.16,9.34.23,15.56.35-.95,32.65-2.47,65.3-3.15,97.96-.11,8.78.93,15.53,2.91,20.22,1.98,4.7,4.69,6.82,7.9,6.75,3.19-.08,5.46-2.23,6.97-6.81,1.51-4.57,2.09-11.25,2.01-20.16-.08-32.57.73-65.14.61-97.71,6.21.08,9.31.18,15.52.11.53,33.77-.17,67.57-.02,101.34ZM129.86,187.57c-.06,15.61-.38,31.76-2.77,47.28-1.52,9.82-3.85,19.97-8.45,28.73-3.59,6.85-8.21,10.31-13.51,10.22-5.39-.09-9.82-3.27-12.5-9.31-3.83-8.65-4.19-19.1-4.03-28.56.27-16.28,2.36-32.63,4.9-48.62,3.37-21.15,7.3-42.92,13.49-63.19,2.35-7.7,7.75-22.43,11.97-22.1,4.26.34,6.99,15.44,8.02,23.24,2.67,20.29,2.95,41.69,2.87,62.3ZM105.27,39.89c-5.74,11.5-9.77,23.68-12.14,36.41-1.18,6.34-1.45,10.16.14,12.65.19.3.41.59.66.85-3.52-.69-6.64-2.24-9.99-3.65,2.38-8.98,4.77-17.95,7.29-26.88,2.41-8.53,5.21-17.03,8.76-25.1,6.45-14.69,17.79-22.44,33.51-22.78,4.61-.1,9.35-.45,13.81.45,9.02,1.82,15.21,7.92,19.57,16.09,5.14,9.64,7.89,20.16,9.09,30.95,1.06,9.48,2.57,18.84,4.43,28.09-5.55,1.35-10.67,5.3-16.99,4.76,1.62-.45,3.24-.91,4.85-1.37,2.76-.77,3.43-2.97,2.99-5.77-1.63-10.4-2.78-20.91-4.91-31.2-1.8-8.69-4.3-17.4-10.85-23.83-15.9-15.61-39.73-10.72-50.23,10.32ZM135.15,106.18c4.37.37,5.97-.58,10.33-.92,2.15-.16,3.91,1.57,5.54,5.42,1.63,3.85,3.26,9.53,5.06,16.98,2.09,8.66,3.91,17.41,5.67,26.13,2.13,10.51,4.18,21.14,5.91,31.71,2.22,13.53,4.61,27.44,5.21,40.96.36,8.1.46,16.51-.79,24.7-1.03,6.69-2.59,11.24-4.6,13.6-2.76,3.25-5.57,4.99-8.19,5.16-8.76.59-13.11.78-21.84.99-1.65-54.81-3.05-109.91-2.3-164.75ZM198.31,446.29c-8.55-1.3-12.79-2.16-21.24-4.2,2.03-16.44-5.82-34.91-9.73-50.64-1.58-6.62-2.84-10.91-3.89-12.88-1.39-2.59-2.95-3.91-4.62-3.89-.65,0-.97.02-1.62.05.52,19.53,5.6,44.57.28,63.55-7.44.37-11.45,2.55-16.8,7.96,2.66-27.03-.83-54.94-.76-82.14.08-27.67.55-55.38,0-83.05,8.71-.4,17.4-.96,26.1-1.56,4.86-.38,8.6.65,11.43,3.15,2.82,2.5,5.42,7.42,7.3,14.84,2.26,8.88,3.06,18.17,3.95,27.33.76,7.77.89,16.36-.23,24.11-.97,6.69-2.53,12.07-4.72,16.05-1.4,2.53-3.41,4.52-6.03,5.96,2.26,2.27,3.95,4.48,5.07,6.63.75,1.44,1.9,4.46,3.49,9.11,1.59,4.65,2.73,8.24,3.35,10.74,3.77,14.47,12.56,33.86,8.68,48.91ZM221.88,378.89c1.96,18.24,12.54,53.56,1.78,69.72-7.73-.23-11.57-.54-19.2-1.48,8.3-24.68-.46-58.29-2.53-84.35-2.25-28.45-3.69-57.22-7.24-85.51,12.9-.98,25.81-1.87,38.71-2.9,2.56,12.07,3.77,24.1,5.25,36.35-7.76,1.88-16.22,2.53-24.17,2.69,1.08,10.13,2.45,20.21,3.64,30.32,8.87-.23,13.62-.12,21.81-2.38,1.67,11.56,3.25,23.13,4.84,34.7-6.92,2.76-15.59,3.08-22.9,2.85Z"/>
  <path class="cls-1" d="M70.17,198.61c-2.02-.36-3.4-.34-5.7-.6-3.1,11.47-6.18,22.96-9.34,34.41,2.64.18,4.09.2,6.58.44,2.11.21,4.02-1.25,5.62-4.34,1.6-3.09,2.94-7.31,4.11-12.66,1.09-4.97,1.56-9,1.48-12.12-.07-3.12-1-4.82-2.74-5.14Z"/>
</svg>